<mxfile host="app.diagrams.net" modified="2024-01-09T15:17:16.364Z" agent="Mozilla/5.0 (X11; Linux x86_64) AppleWebKit/537.36 (KHTML, like Gecko) Chrome/120.0.0.0 Safari/537.36" version="22.1.17" etag="RbfhSL1W9mmuDCgE23qS" type="github">
  <diagram name="第 1 页" id="5o-nZVUnl646fDBXfro8">
    <mxGraphModel>
      <root>
        <mxCell id="0" />
        <mxCell id="1" parent="0" />
      </root>
    </mxGraphModel>
  </diagram>
</mxfile>
